<svg width="49" height="36" viewBox="0 0 49 36" fill="none" xmlns="http://www.w3.org/2000/svg">
<path d="M41.4675 3.14591C38.3653 1.77298 35.0387 0.761457 31.5605 0.182118C31.4972 0.170937 31.4339 0.198879 31.4013 0.254764C30.9734 0.988715 30.4995 1.94621 30.1677 2.6988C26.4266 2.1586 22.7048 2.1586 19.0405 2.6988C18.7086 1.92949 18.2175 0.988715 17.7877 0.254764C17.7551 0.200743 17.6918 0.172801 17.6285 0.182118C14.1522 0.759606 10.8256 1.77113 7.72147 3.14591C7.69459 3.15709 7.67156 3.17574 7.65627 3.19994C1.34637 12.2925 -0.382182 21.1616 0.465786 29.9207C0.469622 29.9636 0.494562 30.0046 0.529095 30.0306C4.69219 32.9795 8.72486 34.7697 12.6826 35.9563C12.746 35.975 12.8131 35.9526 12.8534 35.9023C13.7896 34.6691 14.6242 33.3689 15.3397 32.0015C15.382 31.9214 15.3416 31.8264 15.2553 31.7947C13.9316 31.3104 12.6711 30.7199 11.4586 30.0493C11.3627 29.9952 11.3551 29.8629 11.4433 29.7996C11.6984 29.6152 11.9537 29.4233 12.1973 29.2295C12.2414 29.1942 12.3028 29.1867 12.3546 29.2091C20.3201 32.7168 28.9437 32.7168 36.8152 29.2091C36.867 29.1849 36.9284 29.1923 36.9744 29.2277C37.2181 29.4214 37.4733 29.6152 37.7303 29.7996C37.8186 29.8629 37.8128 29.9952 37.7169 30.0493C36.5044 30.7329 35.2439 31.3104 33.9183 31.7929C33.832 31.8245 33.7936 31.9214 33.8358 32.0015C34.5667 33.3669 35.4013 34.6672 36.3202 35.9004C36.3586 35.9526 36.4276 35.975 36.491 35.9563C40.468 34.7697 44.5006 32.9795 48.6637 30.0306C48.7002 30.0046 48.7232 29.9654 48.727 29.9226C49.7419 19.7961 47.0272 10.9997 41.5308 3.20179C41.5173 3.17574 41.4944 3.15709 41.4675 3.14591ZM16.5292 24.5873C14.1311 24.5873 12.1551 22.4637 12.1551 19.8557C12.1551 17.2477 14.0928 15.1241 16.5292 15.1241C18.9848 15.1241 20.9417 17.2663 20.9033 19.8557C20.9033 22.4637 18.9656 24.5873 16.5292 24.5873ZM32.702 24.5873C30.3039 24.5873 28.3279 22.4637 28.3279 19.8557C28.3279 17.2477 30.2655 15.1241 32.702 15.1241C35.1576 15.1241 37.1145 17.2663 37.0761 19.8557C37.0761 22.4637 35.1576 24.5873 32.702 24.5873Z" fill="#1A132F"/>
</svg>
