<svg width="36" height="56" viewBox="0 0 36 56" fill="none" xmlns="http://www.w3.org/2000/svg">
<path d="M22.6393 54.8644C25.6455 54.0355 28.3382 52.4271 30.4842 50.2811C33.7055 47.0598 35.7037 42.6154 35.7037 37.7229V18.1487C35.7037 13.2563 33.7055 8.81188 30.4842 5.59058C27.2629 2.36928 22.8185 0.371094 17.9261 0.371094C13.0381 0.371094 8.58923 2.36928 5.36793 5.59058C2.14663 8.81188 0.148438 13.2608 0.148438 18.1487V37.7185C0.148438 42.6109 2.14663 47.0553 5.36793 50.2766C7.87239 52.7811 11.1116 54.5463 14.7272 55.2094C16.9135 55.6126 20.6232 55.4199 22.6393 54.8644ZM17.7245 41.6163C19.5838 41.6163 21.107 40.093 21.107 38.2337V34.7481C21.107 32.8887 19.5838 31.3655 17.7245 31.3655C15.8652 31.3655 14.3419 32.8887 14.3419 34.7481V38.2337C14.3419 40.093 15.8607 41.6163 17.7245 41.6163ZM27.5138 47.3107C25.0541 49.7703 21.6581 51.3026 17.9261 51.3026C14.194 51.3026 10.8025 49.7748 8.33834 47.3107C5.87868 44.851 4.34643 41.455 4.34643 37.7229V18.1487C4.34643 14.4167 5.8742 11.0251 8.33834 8.56099C10.798 6.10133 14.194 4.56909 17.9261 4.56909C21.6581 4.56909 25.0497 6.09685 27.5138 8.56099C29.9735 11.0206 31.5057 14.4167 31.5057 18.1487V37.7185C31.5057 41.455 29.9779 44.8465 27.5138 47.3107Z" fill="white"/>
</svg>
