<svg width="128" height="128" viewBox="0 0 128 128" fill="none" xmlns="http://www.w3.org/2000/svg">
<path d="M63.9991 22.3608C63.9991 24.7722 63.5242 27.1601 62.6013 29.388C61.6785 31.6159 60.3259 33.6402 58.6207 35.3453C56.9155 37.0505 54.8912 38.403 52.6633 39.3258C50.4354 40.2486 48.0475 40.7236 45.6361 40.7235C40.766 40.7235 36.0954 38.7889 32.6517 35.3452C29.2081 31.9015 27.2734 27.2309 27.2734 22.3608C27.2734 17.4907 29.2081 12.8201 32.6517 9.3764C36.0954 5.93273 40.766 3.99808 45.6361 3.99805C48.0475 3.99801 50.4354 4.47295 52.6633 5.39575C54.8912 6.31855 56.9155 7.67113 58.6207 9.37627C60.3259 11.0814 61.6785 13.1057 62.6013 15.3336C63.5241 17.5615 63.9991 19.9493 63.9991 22.3608Z" fill="#A8D0FF"/>
<path d="M100.725 22.3608C100.725 27.2309 98.7907 31.9015 95.347 35.3452C91.9034 38.7889 87.2327 40.7235 82.3627 40.7235C77.4926 40.7235 72.822 38.7889 69.3783 35.3452C65.9346 31.9015 64 27.2309 64 22.3608C64 17.4907 65.9346 12.8201 69.3783 9.3764C72.822 5.93273 77.4926 3.99808 82.3627 3.99805C87.2327 3.99808 91.9033 5.93273 95.347 9.3764C98.7907 12.8201 100.725 17.4907 100.725 22.3608" fill="#A8D0FF"/>
<path d="M63.9996 15.1895C58.386 15.1895 53.8668 19.7086 53.8668 25.3222V28.2616H74.1321V25.3222C74.1321 19.7086 69.6129 15.1895 63.9996 15.1895ZM14 58.5015V114.001C14 119.541 18.4598 124.001 23.9998 124.001H103.999C109.539 124.001 113.999 119.541 113.999 114.001V58.5015H14Z" fill="#0063FF"/>
<path d="M13.9999 26.8184H113.999C119.539 26.8184 123.999 31.2783 123.999 36.8183V49.2509C123.999 54.7908 119.539 59.2508 113.999 59.2508H13.9999C8.45991 59.2508 4 54.7908 4 49.2509V36.8183C4 31.2783 8.45991 26.8184 13.9999 26.8184V26.8184Z" fill="#00A1FF"/>
<path d="M53.8672 31.5684V124.001H74.1324V31.5684H53.8672Z" fill="#A8D0FF"/>
<path d="M53.8672 26.8184V59.2516H74.1324V26.8184H53.8672Z" fill="white"/>
</svg>
