<svg width="32" height="32" viewBox="0 0 32 32" fill="none" xmlns="http://www.w3.org/2000/svg">
<g clip-path="url(#clip0_1882_2509)">
<path d="M5.93984 8.95312H3.58984V11.6591H5.93984V8.95312Z" fill="#FFD9AA"/>
<path d="M7.50953 6.89947C7.5085 7.52534 7.29361 8.13207 6.9005 8.61908C6.50738 9.10609 5.95965 9.44413 5.34808 9.57719C4.73651 9.71024 4.09784 9.6303 3.53793 9.35063C2.97802 9.07096 2.53049 8.60834 2.26953 8.03947C2.10454 7.68209 2.01924 7.2931 2.01953 6.89947C2.0197 6.27277 2.23454 5.66504 2.62828 5.17748C3.02202 4.68991 3.57089 4.35193 4.18351 4.21982C4.79613 4.08771 5.43551 4.16944 5.9952 4.4514C6.55488 4.73337 7.0011 5.19854 7.25953 5.76947V5.77947C7.42442 6.12981 7.50979 6.51227 7.50953 6.89947V6.89947Z" fill="#FFD9AA"/>
<path d="M7.25953 5.76947V5.77947L3.58953 6.50947V8.07947H2.29953L2.26953 8.03947C2.10454 7.68209 2.01924 7.2931 2.01953 6.89947C2.0197 6.27277 2.23454 5.66504 2.62828 5.17748C3.02202 4.68991 3.57089 4.35193 4.18351 4.21982C4.79613 4.08771 5.43551 4.16944 5.9952 4.4514C6.55488 4.73337 7.0011 5.19854 7.25953 5.76947V5.76947Z" fill="#57565D"/>
<path d="M4.44169 20.5298L5.94169 22.1748L5.27569 27.5168C5.26955 27.5498 5.26687 27.5833 5.26769 27.6168C5.2669 27.8171 5.33956 28.0108 5.47192 28.1612C5.60428 28.3115 5.78716 28.4082 5.98596 28.4328C6.18477 28.4574 6.3857 28.4084 6.55076 28.2948C6.71582 28.1813 6.83355 28.0113 6.88169 27.8168L8.16669 22.7488C8.24638 22.432 8.22719 22.0984 8.11169 21.7928L6.72069 18.2578H2.80469L4.44169 20.5298Z" fill="#416FB3"/>
<path d="M1.377 28.4408C1.26258 28.4407 1.14952 28.4159 1.04545 28.3684C0.94139 28.3208 0.848744 28.2514 0.773771 28.165C0.698797 28.0785 0.643239 27.977 0.610848 27.8673C0.578456 27.7575 0.569984 27.6421 0.586004 27.5288L2.022 18.2578H5.156L2.156 27.8098C2.11749 27.988 2.01927 28.1477 1.8776 28.2625C1.73593 28.3772 1.55932 28.4401 1.377 28.4408V28.4408Z" fill="#416FB3"/>
<path d="M11.4195 14.7291C11.4203 14.8835 11.3907 15.0364 11.3323 15.1793C11.2739 15.3222 11.1879 15.4521 11.0792 15.5617C10.9705 15.6713 10.8413 15.7584 10.699 15.818C10.5566 15.8777 10.4039 15.9086 10.2495 15.9091H8.28954L6.71954 14.7291V18.2591H2.01954V12.7791C2.01901 12.5728 2.05926 12.3684 2.13797 12.1777C2.21668 11.987 2.33231 11.8137 2.4782 11.6678C2.6241 11.5219 2.79738 11.4063 2.9881 11.3276C3.17882 11.2488 3.38321 11.2086 3.58954 11.2091H5.38954C5.57762 11.2065 5.76442 11.2405 5.93954 11.3091C6.09309 11.3693 6.23775 11.45 6.36954 11.5491L8.87954 13.5591H10.2495C10.4034 13.5585 10.5558 13.5883 10.6981 13.6468C10.8403 13.7054 10.9695 13.7916 11.0783 13.9003C11.1871 14.0091 11.2733 14.1384 11.3318 14.2806C11.3904 14.4229 11.4202 14.5753 11.4195 14.7291Z" fill="#82C8EC"/>
<path d="M11.42 14.7306C11.4208 14.8849 11.3911 15.0379 11.3327 15.1807C11.2743 15.3236 11.1884 15.4536 11.0797 15.5632C10.971 15.6728 10.8418 15.7599 10.6994 15.8195C10.5571 15.8791 10.4043 15.91 10.25 15.9106H9.51L9.5 15.9006V13.7006L9.54 13.5606H10.25C10.4038 13.5599 10.5563 13.5897 10.6985 13.6483C10.8408 13.7068 10.97 13.793 11.0788 13.9018C11.1876 14.0105 11.2737 14.1398 11.3323 14.282C11.3909 14.4243 11.4207 14.5767 11.42 14.7306Z" fill="#FFD9AA"/>
<path d="M26.5 20V24.813H18.5V26.625L11.5 26.5V28.5H0.5V31.5H7.5H15.5H23.5H31.5V27.844V20H26.5Z" fill="#D9D8DA"/>
<path d="M19.0602 8.01367H21.4102V5.30767H19.0602V8.01367Z" fill="#FFD9AA"/>
<path d="M17.4883 3.25494C17.4893 3.88081 17.7042 4.48754 18.0973 4.97455C18.4904 5.46156 19.0382 5.7996 19.6497 5.93265C20.2613 6.0657 20.9 5.98577 21.4599 5.7061C22.0198 5.42643 22.4673 4.96381 22.7283 4.39494C22.8933 4.03756 22.9786 3.64857 22.9783 3.25494C22.9781 2.62824 22.7633 2.02051 22.3695 1.53295C21.9758 1.04538 21.4269 0.707402 20.8143 0.575292C20.2017 0.443182 19.5623 0.524912 19.0026 0.806873C18.4429 1.08883 17.9967 1.55401 17.7383 2.12494V2.13494C17.5734 2.48528 17.488 2.86774 17.4883 3.25494V3.25494Z" fill="#FFD9AA"/>
<path d="M17.7383 2.12494V2.13494L21.4083 2.86494V4.43494H22.6993L22.7293 4.39494C22.8943 4.03756 22.9796 3.64857 22.9793 3.25494C22.9791 2.62824 22.7643 2.02051 22.3705 1.53295C21.9768 1.04538 21.4279 0.707402 20.8153 0.575292C20.2027 0.443182 19.5633 0.524912 19.0036 0.806873C18.4439 1.08883 17.9977 1.55401 17.7393 2.12494H17.7383Z" fill="#57565D"/>
<path d="M20.5546 16.8854L19.0546 18.5304L19.7206 23.8724C19.7267 23.9054 19.7294 23.9389 19.7286 23.9724C19.7294 24.1727 19.6567 24.3664 19.5244 24.5168C19.392 24.6671 19.2091 24.7638 19.0103 24.7884C18.8115 24.8131 18.6106 24.764 18.4455 24.6505C18.2805 24.5369 18.1627 24.3669 18.1146 24.1724L16.8296 19.1044C16.7499 18.7876 16.7691 18.454 16.8846 18.1484L18.2706 14.6074H22.1876L20.5546 16.8854Z" fill="#416FB3"/>
<path d="M23.6227 24.8002C23.7372 24.8 23.8502 24.7753 23.9543 24.7277C24.0584 24.6802 24.151 24.6108 24.226 24.5244C24.301 24.4379 24.3565 24.3364 24.3889 24.2267C24.4213 24.1169 24.4298 24.0015 24.4137 23.8882L22.9777 14.6172H19.8438L22.8438 24.1692C22.8823 24.3474 22.9805 24.5071 23.1222 24.6218C23.2638 24.7366 23.4404 24.7995 23.6227 24.8002V24.8002Z" fill="#416FB3"/>
<path d="M13.5781 11.0846C13.5774 11.2389 13.607 11.3919 13.6654 11.5348C13.7238 11.6777 13.8098 11.8076 13.9185 11.9172C14.0271 12.0268 14.1563 12.1139 14.2987 12.1735C14.4411 12.2331 14.5938 12.2641 14.7481 12.2646H16.7081L18.2781 11.0846V14.6146H22.9781V9.1346C22.9787 8.92827 22.9384 8.72388 22.8597 8.53316C22.781 8.34244 22.6654 8.16915 22.5195 8.02326C22.3736 7.87737 22.2003 7.76174 22.0096 7.68303C21.8189 7.60432 21.6145 7.56407 21.4081 7.5646H19.6081C19.4201 7.56196 19.2333 7.59593 19.0581 7.6646C18.9046 7.72472 18.7599 7.80546 18.6281 7.9046L16.1181 9.9146H14.7481C14.5943 9.91393 14.4419 9.94374 14.2996 10.0023C14.1574 10.0609 14.0281 10.147 13.9193 10.2558C13.8106 10.3646 13.7244 10.4938 13.6659 10.6361C13.6073 10.7783 13.5775 10.9308 13.5781 11.0846V11.0846Z" fill="#ED456A"/>
<path d="M13.5781 11.0841C13.5774 11.2384 13.607 11.3914 13.6654 11.5343C13.7238 11.6771 13.8098 11.8071 13.9185 11.9167C14.0271 12.0263 14.1563 12.1134 14.2987 12.173C14.4411 12.2326 14.5938 12.2635 14.7481 12.2641H15.4881L15.4981 12.2541V10.0541L15.4581 9.91407H14.7481C14.5943 9.91341 14.4419 9.94322 14.2996 10.0018C14.1574 10.0604 14.0281 10.1465 13.9193 10.2553C13.8106 10.3641 13.7244 10.4933 13.6659 10.6356C13.6073 10.7778 13.5775 10.9302 13.5781 11.0841Z" fill="#FFD9AA"/>
<path d="M31.5 19.4996H26.5C26.3674 19.4996 26.2402 19.5523 26.1464 19.6461C26.0527 19.7398 26 19.867 26 19.9996V24.3126H24.877C24.9206 24.1466 24.9311 23.9737 24.908 23.8036L23.478 14.5696V9.1246C23.4772 8.66441 23.3226 8.21768 23.0389 7.85534C22.7552 7.493 22.3586 7.23581 21.912 7.1246V6.0116C22.453 5.68289 22.8861 5.20323 23.158 4.6316L23.167 4.6156C23.3704 4.18882 23.4769 3.72237 23.479 3.2496C23.481 2.51601 23.2334 1.80355 22.777 1.22925C22.3206 0.654943 21.6824 0.252949 20.9673 0.0892924C20.2521 -0.0743638 19.5026 0.0100498 18.8418 0.328668C18.1811 0.647286 17.6483 1.18116 17.331 1.8426C17.325 1.8506 17.322 1.8606 17.316 1.8696C16.9664 2.59046 16.9004 3.4164 17.1312 4.18361C17.362 4.95083 17.8727 5.60329 18.562 6.0116V7.3486C18.4776 7.39647 18.3967 7.45027 18.32 7.5096L15.948 9.4096H14.748C14.3038 9.4096 13.8777 9.58608 13.5636 9.9002C13.2495 10.2143 13.073 10.6404 13.073 11.0846C13.073 11.5288 13.2495 11.9549 13.5636 12.269C13.8777 12.5831 14.3038 12.7596 14.748 12.7596H16.706C16.8142 12.7596 16.9195 12.7245 17.006 12.6596L17.773 12.0846V14.5146L16.424 17.9696C16.2724 18.3718 16.2469 18.8106 16.351 19.2276L17.637 24.2996C17.7013 24.5288 17.8268 24.7362 18 24.8996V26.1176L11.509 25.9996C11.4421 25.9943 11.3749 26.0045 11.3126 26.0295C11.2503 26.0545 11.1947 26.0935 11.15 26.1436C11.1026 26.19 11.065 26.2454 11.0392 26.3065C11.0135 26.3677 11.0001 26.4333 11 26.4996V27.9996H7.339C7.345 27.9806 7.358 27.9646 7.363 27.9446L8.648 22.8756C8.7517 22.4577 8.72554 22.0182 8.573 21.6156L7.222 18.1636V15.7336L7.989 16.3086C8.07555 16.3735 8.18081 16.4086 8.289 16.4086H10.247C10.467 16.4086 10.6848 16.3653 10.888 16.2811C11.0912 16.1969 11.2759 16.0735 11.4314 15.918C11.5869 15.7625 11.7103 15.5778 11.7945 15.3746C11.8787 15.1714 11.922 14.9536 11.922 14.7336C11.922 14.5136 11.8787 14.2958 11.7945 14.0926C11.7103 13.8894 11.5869 13.7047 11.4314 13.5492C11.2759 13.3937 11.0912 13.2703 10.888 13.1861C10.6848 13.1019 10.467 13.0586 10.247 13.0586H9.053L6.68 11.1586C6.6035 11.1 6.52296 11.0469 6.439 10.9996V9.6606C7.12818 9.25266 7.63889 8.60062 7.86986 7.83379C8.10084 7.06695 8.03521 6.24132 7.686 5.5206C7.68 5.5106 7.677 5.5006 7.67 5.4916C7.30214 4.71784 6.64198 4.12189 5.83473 3.83486C5.02748 3.54784 4.13927 3.59325 3.3655 3.9611C2.59173 4.32896 1.99578 4.98913 1.70876 5.79638C1.42173 6.60363 1.46714 7.49183 1.835 8.2656L1.842 8.2786C2.11388 8.8511 2.54737 9.33151 3.089 9.6606V10.7766C2.64244 10.8878 2.24582 11.145 1.96211 11.5073C1.67839 11.8697 1.52385 12.3164 1.523 12.7766V18.2206L0.091 27.4586C0.0614756 27.6845 0.0918222 27.9141 0.179 28.1246C0.123614 28.1703 0.0788905 28.2275 0.0479681 28.2923C0.0170458 28.3571 0.000673526 28.4278 0 28.4996L0 31.4996C0 31.6322 0.0526784 31.7594 0.146447 31.8532C0.240215 31.9469 0.367392 31.9996 0.5 31.9996H31.5C31.6326 31.9996 31.7598 31.9469 31.8536 31.8532C31.9473 31.7594 32 31.6322 32 31.4996V19.9996C32 19.867 31.9473 19.7398 31.8536 19.6461C31.7598 19.5523 31.6326 19.4996 31.5 19.4996ZM15 11.7586H14.753C14.6194 11.7587 14.4887 11.7191 14.3776 11.6449C14.2665 11.5707 14.1799 11.4651 14.1289 11.3416C14.0778 11.2182 14.0645 11.0823 14.0907 10.9513C14.1169 10.8203 14.1814 10.6999 14.276 10.6056C14.3381 10.5423 14.4121 10.492 14.4939 10.4577C14.5756 10.4233 14.6633 10.4056 14.752 10.4056H15V11.7586ZM10 14.0586H10.247C10.426 14.0586 10.5977 14.1297 10.7243 14.2563C10.8509 14.3829 10.922 14.5546 10.922 14.7336C10.922 14.9126 10.8509 15.0843 10.7243 15.2109C10.5977 15.3375 10.426 15.4086 10.247 15.4086H10V14.0586ZM23.919 23.9496C23.925 23.992 23.9218 24.0351 23.9098 24.0762C23.8977 24.1172 23.877 24.1552 23.849 24.1876C23.8055 24.222 23.7541 24.245 23.6995 24.2545C23.6449 24.264 23.5888 24.2597 23.5362 24.242C23.4837 24.2243 23.4364 24.1938 23.3986 24.1532C23.3609 24.1127 23.3338 24.0633 23.32 24.0096L20.526 15.1096H22.549L23.919 23.9496ZM20.219 23.8046L19.581 18.6896L20.337 17.8586L22.349 24.2646C22.349 24.2816 22.364 24.2946 22.368 24.3116H20.165C20.2041 24.2007 20.2277 24.085 20.235 23.9676C20.2366 23.9133 20.2326 23.859 20.223 23.8056L20.219 23.8046ZM20.232 1.0046C20.5269 1.00434 20.819 1.06222 21.0916 1.17494C21.3641 1.28766 21.6118 1.453 21.8204 1.6615C22.029 1.87001 22.1944 2.11759 22.3073 2.39009C22.4201 2.66259 22.4781 2.95467 22.478 3.2496C22.4751 3.47955 22.4363 3.70762 22.363 3.9256H21.912V2.8576C21.912 2.74234 21.8722 2.63061 21.7993 2.54131C21.7264 2.45202 21.6249 2.39066 21.512 2.3676L18.559 1.7816C18.767 1.54031 19.0243 1.34645 19.3136 1.2131C19.6029 1.07975 19.9174 1.01001 20.236 1.0086L20.232 1.0046ZM17.995 3.2496C17.9973 3.06553 18.0224 2.88245 18.07 2.7046L20.912 3.2676V4.4256C20.912 4.55821 20.9647 4.68539 21.0584 4.77916C21.1522 4.87293 21.2794 4.9256 21.412 4.9256H21.712C21.3903 5.2135 20.9919 5.40182 20.5652 5.46769C20.1385 5.53356 19.7019 5.47416 19.3083 5.2967C18.9147 5.11923 18.5811 4.83134 18.348 4.46796C18.1149 4.10457 17.9923 3.68133 17.995 3.2496V3.2496ZM20.912 6.4186V7.0576H19.612C19.595 7.0576 19.579 7.0576 19.563 7.0576V6.4186C20.0077 6.51591 20.4683 6.51591 20.913 6.4186H20.912ZM16.545 11.7586H16V10.4086H16.123C16.2367 10.4089 16.3471 10.3705 16.436 10.2996L18.945 8.2916C19.1347 8.14087 19.3697 8.05875 19.612 8.0586H21.412C21.6946 8.05913 21.9654 8.17161 22.1652 8.37141C22.365 8.57121 22.4775 8.84205 22.478 9.1246V14.1076H18.778V11.4746C18.775 11.433 18.7666 11.392 18.753 11.3526L20.144 10.3086C20.2501 10.229 20.3202 10.1106 20.339 9.97931C20.3577 9.84804 20.3236 9.71469 20.244 9.6086C20.1644 9.50252 20.046 9.43238 19.9147 9.41363C19.7834 9.39488 19.6501 9.42904 19.544 9.5086L16.545 11.7586ZM17.322 18.9836C17.2674 18.7677 17.2796 18.5404 17.357 18.3316L18.62 15.1086H19.478L19.995 16.7556L18.695 18.1876C18.6463 18.2412 18.6098 18.3047 18.588 18.3738C18.5663 18.4428 18.5598 18.5158 18.569 18.5876L19.239 23.9706C19.2387 24.0561 19.2046 24.138 19.144 24.1984C19.0835 24.2587 19.0015 24.2926 18.916 24.2926C18.846 24.2902 18.7785 24.2656 18.7235 24.2223C18.6685 24.1789 18.6287 24.1191 18.61 24.0516L17.322 18.9836ZM7.642 21.9776C7.72046 22.1868 7.73337 22.4149 7.679 22.6316L6.4 27.6996C6.37359 27.7713 6.32264 27.8312 6.25621 27.8689C6.18977 27.9065 6.11215 27.9194 6.03711 27.9053C5.96207 27.8911 5.89446 27.8509 5.8463 27.7916C5.79813 27.7324 5.77252 27.658 5.774 27.5816L6.44 22.2396C6.44921 22.1678 6.44272 22.0948 6.42096 22.0258C6.39921 21.9567 6.36271 21.8932 6.314 21.8396L5.014 20.4076L5.531 18.7596H6.389L7.642 21.9776ZM4.842 27.9996H2.618C2.618 27.9856 2.632 27.9736 2.635 27.9586L4.659 21.5096L5.415 22.3396L4.783 27.4176C4.77005 27.4835 4.76402 27.5505 4.765 27.6176C4.77107 27.7481 4.79703 27.8769 4.842 27.9996ZM7.005 6.8996C7.0072 7.33087 6.88431 7.75351 6.6512 8.11635C6.41809 8.47919 6.08477 8.76665 5.69162 8.94392C5.29847 9.12118 4.86235 9.18064 4.43609 9.11509C4.00984 9.04954 3.61173 8.8618 3.29 8.5746H3.59C3.72261 8.5746 3.84979 8.52193 3.94355 8.42816C4.03732 8.33439 4.09 8.20721 4.09 8.0746V6.9186L6.932 6.3556C6.97879 6.53321 7.00331 6.71595 7.005 6.8996V6.8996ZM5.439 10.0686V10.7136C5.422 10.7136 5.406 10.7136 5.39 10.7136H4.09V10.0736C4.53474 10.1709 4.99526 10.1709 5.44 10.0736L5.439 10.0686ZM2.639 7.5756C2.56503 7.35774 2.52556 7.12966 2.522 6.8996C2.52015 6.44339 2.65815 5.99757 2.91741 5.62218C3.17666 5.24679 3.54472 4.95986 3.97203 4.80003C4.39933 4.6402 4.86535 4.61515 5.30732 4.72825C5.74929 4.84135 6.146 5.08717 6.444 5.4326L3.491 6.0186C3.37806 6.04166 3.27656 6.10302 3.20367 6.19231C3.13078 6.28161 3.09098 6.39334 3.091 6.5086V7.5746L2.639 7.5756ZM2.524 12.7756C2.52453 12.493 2.63701 12.2222 2.83681 12.0224C3.03661 11.8226 3.30744 11.7101 3.59 11.7096H5.39C5.63195 11.7098 5.86669 11.7919 6.056 11.9426L8.565 13.9496C8.65391 14.0205 8.76431 14.0589 8.878 14.0586H9V15.4076H8.456L5.456 13.1576C5.40347 13.1182 5.3437 13.0895 5.28009 13.0732C5.21648 13.057 5.15029 13.0533 5.08529 13.0626C4.95401 13.0814 4.83556 13.1515 4.756 13.2576C4.67644 13.3637 4.64227 13.497 4.66103 13.6283C4.67978 13.7596 4.74991 13.878 4.856 13.9576L6.247 14.9996C6.23333 15.0393 6.22493 15.0807 6.222 15.1226V17.7556H2.522L2.524 12.7756ZM2.453 18.7576H4.475L1.669 27.6996C1.614 27.9546 1.223 27.9166 1.151 27.8346C1.12353 27.8029 1.10302 27.7658 1.09079 27.7256C1.07856 27.6855 1.07488 27.6432 1.08 27.6016L2.453 18.7576ZM31 30.9996H1V28.9996H11.5C11.6326 28.9996 11.7598 28.9469 11.8536 28.8532C11.9473 28.7594 12 28.6322 12 28.4996V27.0086L18.491 27.1246C18.624 27.1208 18.7512 27.0697 18.85 26.9806C18.8974 26.9342 18.935 26.8788 18.9608 26.8177C18.9865 26.7566 18.9999 26.6909 19 26.6246V25.3126H26.5C26.6326 25.3126 26.7598 25.2599 26.8536 25.1662C26.9473 25.0724 27 24.9452 27 24.8126V20.4996H31V30.9996Z" fill="black"/>
</g>
<defs>
<clipPath id="clip0_1882_2509">
<rect width="32" height="32" fill="white"/>
</clipPath>
</defs>
</svg>
