<svg width="128" height="128" viewBox="0 0 128 128" fill="none" xmlns="http://www.w3.org/2000/svg">
<path d="M104.6 43.2792C99.8395 22.3692 81.1095 6.69922 58.7695 6.69922C32.8495 6.69922 11.7695 27.7792 11.7695 53.6992C11.7695 60.2992 13.1495 66.5892 15.6095 72.2992L104.6 43.2792Z" fill="#BFCC58"/>
<path d="M96.6384 73.9991L96.6884 51.0391L57.9984 59.9991C53.1384 59.9991 47.0184 65.6091 46.4184 70.4291C44.8184 83.3291 47.4384 108.849 72.1084 112.499L80.9984 110.999C95.6284 103.639 96.6384 78.8191 96.6384 73.9991Z" fill="white"/>
<path d="M103.39 31.1792C94.8095 14.2292 77.7095 3.69922 58.7695 3.69922C50.9495 3.69922 43.5395 5.50922 36.9395 8.71922C36.9095 8.72922 36.8895 8.73922 36.8595 8.74922C20.2295 16.8692 8.76953 33.9392 8.76953 53.6992C8.76953 57.3592 9.15953 60.9192 9.90953 64.3592C10.2695 66.0092 12.3795 66.5192 13.4295 65.1992C21.1695 55.4192 32.4095 47.4992 44.9295 42.0392C46.2395 41.4692 46.5295 39.7592 45.4995 38.7792C40.7395 34.2292 37.7695 27.8092 37.7695 20.7092C37.7695 20.6892 37.7695 20.6692 37.7695 20.6492C37.7795 16.9192 40.2495 13.6392 43.7495 12.3592C48.4395 10.6492 53.4895 9.70922 58.7695 9.70922C75.4395 9.70922 90.4795 18.9792 98.0395 33.8992C98.7895 35.3792 100.59 35.9692 102.07 35.2192C103.55 34.4592 104.14 32.6592 103.39 31.1792Z" fill="#464C54"/>
<path d="M115.191 50.44C91.8707 25.38 17.2607 46.26 9.28072 87.4C8.24072 92.78 15.6407 95.66 27.2507 95.72L30.9307 106.39C35.1707 118.72 46.7807 127 59.8207 127H71.0007C72.6607 127 74.0007 125.66 74.0007 124V120C74.0007 118.34 75.3407 117 77.0007 117H78.8907C80.3407 117 81.6707 116.02 81.9407 114.59C82.3107 112.67 80.8507 111 79.0007 111C47.5307 111 46.6807 84.45 48.4207 70.43C49.0207 65.61 53.1407 62 58.0007 62C58.0007 63.66 59.3407 65 61.0007 65H68.0007C69.6607 65 71.0007 63.66 71.0007 62H74.6507C75.9507 62 77.0007 63.06 77.0007 64.36C77.0007 70.74 77.0007 73.2 77.0007 78.62C77.0007 79.93 78.0707 81 79.3807 81H84.5007C84.9107 81 85.3107 80.9 85.6507 80.72C86.7207 80.16 87.1207 78.81 86.6907 77.67L82.3507 65.94C81.8707 64.64 82.2907 63.11 83.4907 62.41C83.9307 62.15 84.4507 62 85.0007 62H88.0007C88.0007 63.67 89.3707 65.03 91.0507 65C92.6907 64.97 94.0007 66.36 94.0007 68V71.36C94.0007 71.37 94.0007 71.39 94.0007 71.4C94.0307 73.26 96.2107 74.29 97.7607 73.26C111.411 64.22 119.231 54.77 115.191 50.44Z" fill="#464C54"/>
<path d="M83.0391 98.6797H77.0391C75.3791 98.6797 74.0391 97.3397 74.0391 95.6797C74.0391 94.0197 75.3791 92.6797 77.0391 92.6797H83.0391C84.6991 92.6797 86.0391 94.0197 86.0391 95.6797C86.0391 97.3397 84.6891 98.6797 83.0391 98.6797Z" fill="#464C54"/>
</svg>
