<svg width="66" height="66" viewBox="0 0 66 66" fill="none" xmlns="http://www.w3.org/2000/svg">
<path d="M30.7902 32.5254C30.7902 32.5254 30.1297 33.8578 29.2912 33.9035C28.4527 33.9492 27.5508 32.2159 27.5508 32.1396C27.5508 32.1396 28.5842 30.7527 29.4577 30.5896C30.3312 30.4265 31.3003 30.1113 31.3003 30.1113L30.7902 32.5254Z" fill="#F7B198"/>
<path d="M15.9481 52.7617L13.9712 52.7543C13.9712 52.7543 12.9624 52.5759 12.7614 52.8022C12.2568 53.3704 13.001 55.8326 13.001 55.8326L13.8394 55.9164C13.8394 55.9164 13.6852 56.8762 13.6478 57.198C13.4971 58.4923 13.2192 62.3218 14.5222 62.3365C15.2224 62.3444 14.9449 60.2766 15.145 59.6056C15.4134 58.7055 17.2908 56.5214 17.2908 56.5214L16.738 53.8563L15.9481 52.7617ZM24.434 60.7913C24.434 60.7913 25.4698 62.5281 25.5297 62.6359C25.5896 62.7437 26.0916 63.9455 25.901 64.3367C25.742 64.663 24.9691 64.966 24.6074 64.9955C23.9778 65.0468 22.6043 64.7142 22.1999 64.2289C22.0139 64.0057 21.9124 63.103 21.9124 63.103L21.7806 63.4384L21.3734 63.2228L21.5878 61.3818L22.5472 59.8331L24.434 60.7913Z" fill="#3459A7"/>
<path d="M29.7797 47.1483C29.4655 48.0729 17.2923 56.5206 17.2923 56.5206C16.3228 55.5324 15.9355 54.2487 15.9496 52.7609C15.9496 52.7609 23.5009 47.2388 24.4089 44.4092C24.8315 43.0923 23.4689 38.9578 23.4689 38.9578C23.4689 38.9578 21.6965 33.1037 21.992 32.8618C22.2875 32.6204 26.3156 26.3902 26.557 26.7928C26.7989 27.1959 29.4585 30.5894 29.4585 30.5894C29.771 31.5776 29.9904 32.5721 29.5923 33.6081C29.3824 34.1533 29.3143 34.7426 29.3965 35.3211C29.7647 37.9243 30.6083 44.7072 29.7797 47.1483ZM31.1989 5.66031L31.1635 4.57111C32.2881 1.19741 27.5494 0.115305 26.4319 1.74911C25.4936 2.43271 25.0476 3.60171 25.1093 5.27131C25.1093 5.27131 25.3073 6.12711 25.3073 6.19071C25.3073 6.25431 25.6114 6.99701 25.6114 6.99701L28.7587 7.44261L31.1139 6.24021L31.1989 5.66031ZM50.5434 53.4843C50.5434 53.4843 51.9524 53.7679 52.4287 53.8136C52.6478 53.8346 53.1705 53.6589 53.3091 53.8299C53.7168 54.3329 52.82 56.3734 52.82 56.3734L52.233 56.3408C52.233 56.3408 52.3344 58.795 52.2167 59.6017C52.0468 60.7664 51.0758 63.4998 49.9178 63.7104C49.7499 63.7409 49.4527 63.4312 49.3961 63.2702C49.1356 62.5297 49.8603 60.9775 49.82 60.205C49.7729 59.3025 48.4773 56.9433 48.4639 56.8541C48.4505 56.7648 49.07 53.9441 49.07 53.9441L50.5434 53.4843ZM44.4642 60.5981C44.4642 60.5981 44.42 61.9911 44.2474 62.4146C44.0156 62.9835 44.7967 63.5161 43.128 64.354C42.6904 64.5737 41.0154 64.815 40.7461 64.4061C40.4891 64.0159 41.1496 62.2194 41.1496 62.2194L41.4748 60.5981L43.7528 59.1477C43.7528 59.1477 44.4467 60.6429 44.4642 60.5981Z" fill="#0E151F"/>
<path d="M36.7077 29.5565C36.7077 29.5565 36.2355 44.9547 36.9095 45.6671C39.6724 48.5879 48.4627 56.8544 48.4627 56.8544C49.4179 55.6675 50.1622 54.5319 50.5423 53.4847C50.5423 53.4847 42.6284 45.0509 42.1855 43.8185C41.6893 42.4377 42.6091 37.9649 42.6091 37.9649L43.1868 29.377L36.7077 29.5565Z" fill="#4C1414"/>
<path d="M43.3231 5.85962C43.2774 4.58722 43.1736 3.44542 42.7029 3.12722C41.5546 0.48702 37.667 1.35172 37.1041 3.91512C36.9751 4.50262 37.3052 6.16972 37.3052 6.16972L37.7746 7.34312L40.2722 7.79572C40.2722 7.79572 42.9375 6.99112 42.9543 6.94922C42.9711 6.90732 43.3231 5.85962 43.3231 5.85962Z" fill="#0E151F"/>
<path d="M29.8754 9.62735C29.8779 9.63695 29.8787 9.64725 29.8787 9.65855C29.875 9.63335 29.8762 9.63885 29.8754 9.62905C29.875 9.62775 29.875 9.62695 29.875 9.62695L29.8754 9.62735Z" fill="#FFC131"/>
<path d="M24.4355 60.7903L21.5893 61.3808C19.4042 54.9744 18.0973 45.8182 17.402 34.7466C17.3642 34.1403 17.2848 33.357 17.4174 32.7644L18.6155 28.1499C18.6155 28.1499 23.0928 28.1354 23.5225 27.7863C23.9522 27.4372 25.7246 30.2032 25.7246 30.2032C25.7246 30.2032 24.5439 35.2307 24.3116 36.9977C23.5366 42.8914 24.4355 60.7903 24.4355 60.7903Z" fill="#101B2B"/>
<path d="M34.3157 13.8608C35.228 14.3294 34.2173 23.6136 33.3848 26.5537C32.9028 28.2557 30.7895 32.5258 30.7895 32.5258C30.5085 31.5179 30.0467 30.9119 29.457 30.59L30.5683 19.7264C30.5682 19.7264 32.7678 13.0657 34.3157 13.8608Z" fill="#5879BB"/>
<path d="M32.6578 20.5086C32.4363 23.1437 29.4563 30.5899 29.4563 30.5899C25.6572 30.8978 22.0567 30.0002 18.6133 28.1505C18.6133 28.1505 19.1843 12.4441 19.4411 10.9011C19.4793 10.6725 23.0225 10.7012 24.0444 10.3708C24.5871 10.1954 25.7595 8.86523 25.7595 8.86523C26.5138 9.96063 27.3507 10.6056 27.9321 10.9422C28.3282 11.1714 29.879 10.0452 29.879 9.65854C29.9085 9.88544 30.1184 11.2239 30.4093 11.5709C31.1361 12.4386 33.4625 13.02 34.3152 13.8607C34.4368 13.9808 32.9416 17.1308 32.6578 20.5086Z" fill="#496CB3"/>
<path d="M30.5909 7.528C31.1638 7.1673 31.521 5.49299 31.0789 5.54769C30.9477 5.56389 30.8172 6.00739 30.8172 6.00739C30.8172 6.00739 30.6519 5.15529 30.6687 4.86869C30.6844 4.60129 30.8746 4.05089 30.7536 3.80069C30.271 2.80329 28.6 3.41749 26.5949 2.54179C26.3002 2.41309 26.4706 3.49889 26.411 3.81489C26.3629 4.06979 26.0387 4.50189 25.9583 4.74849C25.8098 5.20439 25.7815 6.65809 25.7815 6.65809C25.7815 6.65809 25.6259 6.70049 25.6188 6.66509C25.6117 6.62969 25.71 5.48549 25.5127 5.16569C25.1031 4.50189 24.6852 6.57319 25.5481 7.02579C25.5757 7.12649 25.9576 8.7784 26.1281 9.1193C26.1422 9.1476 27.2527 10.3712 27.2527 10.3712L28.4268 10.4773L29.6787 9.6993C29.7215 9.597 30.6505 7.3861 30.5909 7.528ZM34.6207 34.5747C34.6207 34.5747 34.4896 36.2272 34.6443 36.748C34.9002 37.6091 36.3215 39.7009 36.5735 39.7796C37.5377 40.0809 35.5523 36.142 36.479 35.7401C36.7464 35.6241 37.0631 36.4045 37.2152 36.8366C37.2691 36.9897 37.4321 37.0749 37.5885 37.0311C37.7565 36.984 37.8519 36.807 37.7985 36.6409C37.6813 36.2766 37.5001 35.7116 37.4948 35.685C37.4869 35.6456 36.8649 34.0786 36.8649 34.0786L34.7861 34.3227L34.6207 34.5747Z" fill="#F7B198"/>
<path d="M36.8524 34.0502C36.8466 34.3818 34.1383 34.6968 34.1429 34.5194C34.1429 34.5194 33.6638 26.8592 33.697 24.3026C33.7307 21.7327 34.401 14.2384 34.7293 14.0742C34.5535 14.4195 34.8648 16.9055 35.1723 17.85C36.4078 21.6446 36.6945 29.2033 36.7074 29.5553L36.7078 29.5682C36.7078 29.5683 36.8545 33.9446 36.8524 34.0502Z" fill="#003D53"/>
<path d="M49.1766 29.5668C48.6866 38.6469 46.7266 49.4469 44.4666 60.5968C43.4966 60.9469 42.4966 60.9169 41.4766 60.5968L42.4466 41.1368C42.5466 39.1668 42.3666 37.1969 41.9366 35.2668C41.8266 34.7868 41.7366 34.3367 41.7066 34.0568C41.5166 32.4168 41.7066 27.4668 41.7066 27.4668C41.7066 27.4668 43.5766 27.2767 43.6666 27.3767C43.7566 27.4669 49.1766 29.5668 49.1766 29.5668Z" fill="#631012"/>
<path d="M49.174 29.567C45.044 30.6271 40.884 30.5471 36.704 29.567V29.5571C36.6941 29.2071 36.404 21.6471 35.174 17.847C34.864 16.9071 34.554 14.4171 34.724 14.077C34.924 13.6971 37.044 12.5471 37.824 11.9271C38.114 11.6971 38.834 10.6671 38.834 10.6671C38.834 10.6671 38.844 10.6771 38.854 10.6871C38.874 10.7071 38.894 10.7171 38.914 10.747C38.894 10.7271 38.884 10.7071 38.874 10.6971C39.114 10.877 40.344 11.8071 40.874 11.6871C41.564 11.5371 42.724 9.53711 42.724 9.53711C42.724 9.53711 44.034 10.4071 44.534 10.5171C45.474 10.7372 48.254 10.9572 48.374 11.1271C48.604 11.4672 48.274 15.3471 48.284 16.7571C48.284 18.2172 48.704 21.1171 48.824 22.567C48.984 24.317 49.174 29.567 49.174 29.567Z" fill="#034861"/>
<path d="M42.699 8.71158L42.8078 7.69508C43.5111 7.53398 43.743 5.61728 43.062 5.75258C42.8633 5.79208 42.8441 6.53318 42.8441 6.53318H42.7715C42.7715 6.53318 42.6295 5.56048 42.59 5.23518C42.5363 4.79418 42.4388 3.77558 42.0635 3.53778C41.2137 2.99918 38.6963 3.30628 38.0787 4.10058C37.9246 4.29878 38.2003 4.84828 38.1876 5.09908C38.1797 5.25528 37.958 5.51638 37.9334 5.67088C37.8779 6.02008 38.0786 7.07778 38.0786 7.07778H37.879C37.879 7.07778 37.7575 6.17628 37.5068 6.11558C36.9347 5.97708 37.2704 8.00078 38.0242 8.13068C38.0747 8.23068 39.4265 10.9063 39.3404 10.7358H41.655L42.699 8.71158Z" fill="#F7B198"/>
<path d="M42.722 9.53214C42.722 9.53214 41.5684 11.5331 40.8756 11.6893C40.6661 11.7365 40.0349 11.6142 38.8327 10.6624L38.6328 9.36464C40.1035 10.9558 41.4371 10.3931 42.6995 8.71094L42.722 9.53214Z" fill="#F6A98D"/>
<path d="M47.4442 28.2285C47.4442 28.2285 47.1905 28.8322 47.0123 28.9395C46.4126 29.3006 45.7707 29.4403 45.2515 29.9628L43.9677 31.5768C43.899 31.6632 43.8831 31.7803 43.9263 31.8818C44.0044 32.0657 44.2368 32.1237 44.3922 31.9983L45.4243 31.1655C45.4243 31.1655 46.9975 32.437 48.215 31.7569C48.3799 31.6648 48.6228 31.3474 48.6934 31.1722C48.7706 30.9805 48.7598 30.3483 48.7598 30.3483L49.2781 29.3716L48.2615 28.3882L47.4442 28.2285Z" fill="#F7B198"/>
<path d="M48.3707 11.1233C49.335 10.9136 52.7902 18.6951 52.8619 21.5271C52.8902 22.6466 49.375 29.395 49.375 29.395C48.758 29.1584 47.9704 28.8222 47.3359 28.0968C47.3359 28.0968 49.1842 23.715 49.2633 22.22C49.3337 20.8882 48.4933 18.2935 48.2128 16.9896C47.9041 15.5554 46.9371 11.4351 48.3707 11.1233Z" fill="#115169"/>
<path d="M29.9183 9.07481C29.911 9.17541 29.8707 9.72941 29.878 9.62921L29.8746 9.70401C29.7665 10.1287 28.315 11.1622 27.9343 10.942C27.3529 10.6054 26.516 9.96041 25.7617 8.86501L25.7862 8.00391C26.6373 9.81201 28.1438 10.8559 29.9183 9.07481Z" fill="#F6A98D"/>
<path d="M16.5586 30.8436C16.5586 30.8436 16.8444 33.1037 17.3532 33.1559C17.8619 33.2081 19.0989 30.25 18.8652 29.5375C18.6315 28.825 17.1184 28.6816 17.1184 28.6816L16.8184 29.099L16.5586 30.8436Z" fill="#F7B198"/>
<path d="M19.4423 10.9007C18.4109 10.8456 14.6606 18.8193 14.5453 21.8055C14.409 25.3358 16.559 30.8427 16.559 30.8427C17.0841 30.0318 17.8616 29.6096 18.8656 29.5366C18.8656 29.5366 17.8242 24.3303 17.9333 22.5786C18.0013 21.4873 19.0475 18.3492 19.0475 18.3492C19.0475 18.3492 21.3044 11.0002 19.4423 10.9007Z" fill="#5879BB"/>
</svg>
