<svg width="1348" height="130" viewBox="0 0 1348 130" fill="none" xmlns="http://www.w3.org/2000/svg">
<path d="M1347.5 0.559109L-0.340918 0.559108L-0.340666 104.961C-0.340666 104.961 37.1261 103.436 61.1331 102.459C117.635 100.241 230.638 95.8055 343.641 91.3696C456.644 86.9337 569.648 82.4978 682.651 78.0619C795.654 73.626 908.657 69.1901 1021.66 64.7542C1134.66 60.3183 1347.5 0.559109 1347.5 0.559109Z" fill="#0066FF"/>
<path d="M-0.340666 104.961C-0.340666 104.961 231.623 123.96 344.911 126.79C458.2 129.62 571.448 131.412 684.299 123.121C797.151 114.829 909.613 96.6028 1022.66 93.3532C1135.72 90.1777 1249.36 102.053 1306.18 107.991L1347.5 112L1347.5 0.559109L-0.340918 0.559108L-0.340666 104.961Z" fill="#0066FF"/>
</svg>
