<svg width="1347" height="130" viewBox="0 0 1347 130" fill="none" xmlns="http://www.w3.org/2000/svg">
<path d="M1346.12 0.559398C1233.27 8.85071 0.585698 1.61915 0.585698 1.61915L-0.34067 104.961C-0.34067 104.961 37.1261 103.436 61.1331 102.459C117.635 100.241 230.638 95.8055 343.641 91.3696C456.644 86.9337 569.648 82.4978 682.651 78.0619C795.654 73.626 908.657 69.1901 1021.66 64.7542C1134.66 60.3183 1247.67 55.8824 1304.17 53.6644L1345.17 51.0325L1346.12 0.559398Z" fill="#0066FF"/>
<path d="M-0.34067 104.961C-0.34067 104.961 231.623 123.96 344.911 126.79C458.2 129.62 571.447 131.412 684.299 123.121C797.151 114.829 909.613 96.6029 1022.66 93.3532C1135.72 90.1778 1249.36 102.053 1306.18 107.991L1345.03 112.579L1346.12 0.559398L1302.46 13.0885C1245.95 15.3065 1132.95 19.7424 1019.95 24.1783C906.944 28.6142 793.941 33.0501 680.938 37.486C567.935 41.9219 454.931 46.3578 341.928 50.7937C228.925 55.2296 115.922 59.6655 59.42 61.8835L2.91834 64.1014L-0.34067 104.961Z" fill="#0066FF"/>
</svg>
